# xmcd
#
# Track frame offsets:
#	150
#	13452
#	26027
#	37945
#	50900
#	61945
#	72910
#	85947
#	97257
#	109897
#	120677
#	131480
#	143255
#	158392
#	169537
#	182155
#	195372
#	207290
#	221522
#	233745
#	247382
#	259515
#	276797
#	295650
#
# Disc length: 4226 seconds
#
# Revision: 0
# Processed by: cddbd v1.5.2PL0 Copyright (c) Steve Scherf et al.
# Submitted via: dBpowerAMP V4.0
#
DISCID=5c108018
DTITLE=Tyrone Davis - Ladies Choice: The Dakar Recordings
DYEAR=1998
DGENRE=Soul
TTITLE0=Can I Change My Mind
TTITLE1=A Woman Needs To Be Loved
TTITLE2=She's Looking Good
TTITLE3=Knock On Wood
TTITLE4=Have You Ever Wondered Why
TTITLE5=Slip Away
TTITLE6=Let The Good Times Roll
TTITLE7=Open The Door To Your Heart
TTITLE8=Call On Me
TTITLE9=Just The One I've Been Looking For
TTITLE10=You Can't Keep A Good Man Down
TTITLE11=Is It Something You've Got
TTITLE12=Undying Love
TTITLE13=The Waiting Was Not In Vain
TTITLE14=If It's Love That You're After
TTITLE15=Turn Back The Hands Of Time
TTITLE16=Let Me Back In
TTITLE17=Love Bones
TTITLE18=I'll Be Right Here
TTITLE19=Just Because Of You
TTITLE20=I Keep Coming Back
TTITLE21=Your Love Keeps Haunting Me
TTITLE22=Was It Just A Feeling
TTITLE23=This Time
EXTD=A rare 3 disc set of this great soul crooner late 60's/70's songs.
EXTT0=
EXTT1=
EXTT2=
EXTT3=
EXTT4=
EXTT5=
EXTT6=
EXTT7=
EXTT8=
EXTT9=
EXTT10=
EXTT11=
EXTT12=
EXTT13=
EXTT14=
EXTT15=
EXTT16=
EXTT17=
EXTT18=
EXTT19=
EXTT20=
EXTT21=
EXTT22=
EXTT23=
PLAYORDER=
